<?xml version="1.0" encoding="UTF-8" standalone="no"?>
<!DOCTYPE svg PUBLIC "-//W3C//DTD SVG 1.1//EN" "http://www.w3.org/Graphics/SVG/1.1/DTD/svg11.dtd">
<svg width="100%" height="100%" viewBox="0 0 634 704" version="1.1" xmlns="http://www.w3.org/2000/svg" xmlns:xlink="http://www.w3.org/1999/xlink" xml:space="preserve" xmlns:serif="http://www.serif.com/" style="fill-rule:evenodd;clip-rule:evenodd;stroke-linejoin:round;stroke-miterlimit:2;">
    <g transform="matrix(1,0,0,1,-0.000083,0.000112)">
        <g transform="matrix(1,0,0,1,-75.771864,-113.85664)">
            <g transform="matrix(1,0,0,1,76,114)">
                <path d="M630.5,0C630.555,0.497 631.944,-0.497 631.999,0C634.184,19.679 631.999,19.647 631.999,247.5L631.999,701.999C628.917,704.852 628.158,701.999 579.5,701.999L0,701.999C-0.79,701.736 0.79,699.763 0,699.5C19.715,699.962 310.082,700.381 310.225,699.2C310.512,696.835 307.985,696.771 311.105,669.44C312.503,657.194 315.591,657.62 314.161,645.537C312.699,633.183 320.635,633.531 317.679,599.487C315.512,574.533 316.731,573.334 314.621,573.268C305.684,572.986 307.811,569.42 307.907,560.511C307.955,556.039 311.18,556.871 310.637,552.487C302.859,489.689 297.379,490.611 291.683,427.483C290.803,417.732 289.234,402.933 283.454,401.887C277.489,400.807 276.273,402.693 273.813,398.323C268.393,388.695 212.668,410.887 176.899,353.249C163.969,332.415 188.489,366.143 193.893,371.024C223.076,397.39 257.394,390.008 274.548,395.352C283.091,398.013 288.286,402.306 285.598,396.467C282.826,390.445 266.137,374.377 289.752,358.89C302.38,350.609 300.878,348.714 299.896,348.045C293.577,343.745 290.898,349.723 212.263,309.99C134.533,270.714 147.979,393.629 228.429,429.673C260.45,444.02 294.571,411.143 290.827,454.521C290.768,455.196 289.804,466.365 287.725,462.407C285.632,458.422 296.955,433.45 277.506,433.944C262.981,434.312 251.825,438.183 236.402,434.957C221.02,431.739 68.322,433.673 4.486,445.374C-8.759,447.802 8.287,439.331 60.472,436.114C200.721,427.47 219.499,433.455 208.227,429.862C145.959,410.018 137.134,419.77 139.041,415.336C143.12,405.851 235.536,436.708 225.16,430.725C199.872,416.144 198.645,417.331 180.728,394.318C149.888,354.707 153.87,307.882 176.362,301.112C180.299,299.927 184.632,299.152 180.583,298.338C177.645,297.747 157.567,293.708 147.751,280.321C144.496,275.881 148.298,274.034 143.488,269.511C135.847,262.327 142.115,257.061 143.582,242.508C144.51,233.306 149.044,234.833 150,225.533C150.826,217.5 154.861,218.852 159.441,198.487C159.815,196.827 159.909,195.114 160.236,193.444C161.621,186.359 162.605,186.615 162.654,179.508C162.701,172.694 169.567,167.224 171.673,160.557C180.107,133.861 178.881,130.063 205.306,121.002C248.039,106.35 248.842,105.464 251.515,102.514C260.831,92.232 265.643,97.092 266.606,91.52C267.625,85.625 269.479,85.015 265.531,80.471C262.261,76.707 261.305,65.959 261.189,64.652C258.793,63.514 256.913,67.363 257.078,64.614C257.381,59.526 258.957,58.498 260.342,57.352L260.99,56.587C261.831,56.162 262.673,55.737 263.514,55.312C269.494,53.43 262.872,53.684 262.729,53.699C261.99,54.295 261.25,54.89 260.511,55.485C255.974,53.308 260.61,47.409 268.478,44.409C269.798,45.839 269.795,45.687 270.465,47.385C264.697,48.312 264.01,47.552 263.807,49.453C263.6,51.398 264.6,50.711 268.505,51.454C269.491,53.202 269.709,52.751 271.434,53.659C271.724,53.605 280.488,51.966 274.475,51.57C274.36,49.804 274.424,49.904 273.317,48.472C273.321,46.799 273.489,46.989 273.492,45.49L274.359,45.096C278.305,49.61 286.611,51.755 287.367,47.213C293.232,44.882 283.845,45.428 283.506,45.448L283.78,44.594C282.731,44.448 281.683,44.302 280.634,44.156L279.758,43.868C276.348,39.668 276.022,40.17 274.48,39.221C272.458,40.29 270.436,41.359 268.414,42.428L267.161,40.855C273.569,36.396 276.648,37.992 275.515,33.534C276.291,33.203 277.066,32.873 277.842,32.543C280.281,32.236 280.116,32.174 281.819,30.53L281.398,29.395C282.53,28.196 282.383,28.235 282.628,26.709L283.408,26.337C286.003,27.326 286.063,27.944 288.49,26.546C289.184,26.898 289.879,27.249 290.573,27.601C291.232,27.939 291.89,28.277 292.549,28.616C293.851,28.875 295.154,29.134 296.457,29.393C297.29,29.197 306.704,26.982 306.886,27.017C307.421,27.12 306.982,28.421 307.517,28.524C311.093,26.3 310.494,25.45 311.546,24.12C312.504,24.183 313.463,24.246 314.422,24.309L314.832,23.628C313.372,22.957 311.913,22.285 310.454,21.613C310.1,20.936 309.747,20.259 309.393,19.583C309.528,18.952 309.662,18.322 309.797,17.691L311.394,16.058C314.735,9.588 315.793,9.168 313.807,7.174C311.035,6.071 311.149,5.783 308.46,6.689L305.435,6.244C304.422,7.172 304.542,7.095 304.295,8.286L303.587,8.636L301.56,7.823C299.991,8.223 300.131,7.704 298.382,8.213C298.189,7.928 297.291,6.603 295.45,5.061C306.166,4.535 306.235,2.353 316.471,5.654C317.905,6.116 320.882,3.931 322.56,3.705C326.812,3.132 328.402,6.555 329.776,8.278C333.88,14.542 335.537,12.702 340.387,18.643C341.257,19.814 341.188,19.551 342.411,20.252C343.034,19.98 342.896,20.314 343.388,20.099C343.522,20.041 343.388,20.099 344.993,19.232C363.13,41.294 360.1,47.34 358.898,49.738C354.274,56.676 362.744,56.289 361.432,58.469C360.394,60.192 356.293,57.077 355.885,57.766C344.209,77.5 344.33,78.462 344.582,80.476C344.686,81.302 349.823,90.029 348.258,91.292C340.789,97.322 342.598,100.025 333.476,102.441C332.076,102.812 328.598,110.984 328.78,111.454C332.784,121.757 376.848,127.407 388.007,149.749C397.751,169.257 389.764,171.884 399.748,191.382C402.937,197.61 398.857,200.471 400.985,205.297C407.249,219.51 399.964,223.055 411.496,233.504C415.639,237.258 410.968,244.157 413.636,246.381C423.892,254.929 423.709,256.098 422.083,269.451C422.03,269.886 424.614,280.385 418.58,287.558C407.072,301.237 410.323,310.746 393.664,322.771C387.189,327.445 389.583,340.717 369.496,337.883C367.982,337.669 365.134,351.599 366.936,355.286C370.94,363.473 372.039,363.298 371.312,372.511C371.11,375.075 391.619,380.774 398.484,381.614C417.349,383.922 417.49,383.382 420.287,384.959C432.793,392.013 503.479,379.599 481.606,429.551C478.215,437.294 472.506,441.463 467.782,444.592C467.563,445.534 467.661,445.55 468.494,445.51C511.473,447.484 551.289,443.035 558.446,442.235C604.126,437.13 624.004,427.804 629.278,425.329C631.282,419.957 628.971,8.209 630.5,0ZM630.061,428.605C629.79,697.783 631.035,699.59 628.578,699.801C628.537,699.804 369.797,699.991 368.415,699.702C365.201,699.031 366.879,661.127 344.524,662.901C320.197,664.831 321.043,657.544 322.643,656.676C330.99,652.148 349.405,663.589 349.907,654.529C351.184,631.489 342.264,631.348 349.379,587.475C351.097,576.881 351.593,576.534 352.43,576.824C365.341,581.291 359.105,570.836 359.215,532.499C359.387,472.624 364.146,428.323 353.492,407.503C352.42,405.408 385.396,404.794 386.566,411.48C389.42,427.773 393.522,425.554 408.357,432.758C421.487,439.134 410.689,444.605 415.933,473.432C425.953,528.511 414.793,568.363 423.301,564.165C426.147,562.761 422.256,561.495 422.679,524.502C423.265,473.176 415.121,470.34 416.226,452.474C417.058,439.02 417.417,438.317 418.407,438.811C429.866,444.523 440.523,452.436 462.569,446.905C468.541,445.406 468.694,451.647 539.523,446.838C593.958,443.143 621.821,431.376 628.516,428.548C629.393,428.178 630.027,428.603 630.061,428.605ZM389.857,245.543C377.421,315.942 378.487,318.393 372.529,319.646C370.416,320.09 229.95,315.936 227.601,314.33C224.232,312.029 233.319,219.491 237.6,215.625C242.664,211.052 391.811,217.67 393.038,219.79C394.078,221.587 394.036,221.812 389.857,245.543ZM286.191,179.635C291.167,194.697 288.657,194.939 286.841,210.601C286.184,216.265 237.114,203.036 233.065,218.334C229.126,233.214 229.272,276.642 224.558,276.055C221.593,275.686 196.756,265.118 198.423,260.475C202.108,250.208 199.418,249.668 203.232,239.413C209.131,223.55 203.686,208.831 204.766,182.501C204.901,179.203 205.23,171.182 194.116,142.633C165.127,68.174 198.914,163.716 199.541,165.488C200.826,169.122 200.79,169.021 203.721,213.484C204.483,225.042 200.862,243.667 198.823,241.047C197.705,239.61 192.786,225.255 171.496,224.327C159.301,223.796 150.433,234.29 153.244,222.424C155.104,214.574 158.992,215.833 162.318,195.468C163.641,187.366 164.49,187.698 165.119,179.458C165.686,172.041 171.216,170.595 174.617,159.54C182.571,133.683 183.009,131.297 208.509,122.525C240.638,111.474 242.782,108.573 243.44,112.513C243.613,113.553 245.663,114.479 245.079,116.372C244.599,117.926 239.109,135.725 241.528,136.391C242.393,136.629 254.062,133.905 258.374,138.622C263.556,144.289 264.957,143.829 264.961,151.453C264.966,158.746 272.569,154.649 286.191,179.635ZM357.859,463.497C357.819,471.008 357.365,556.186 356.356,557.373C354.173,559.936 353.889,549.682 314.416,553.881C309.379,554.417 315.208,549.881 303.341,491.536C290.78,429.776 298.429,428.463 289.722,404.429C288.202,400.232 292.431,404.203 345.49,405.947C356.074,406.295 357.113,424.55 357.859,463.497ZM332.493,118.495C336.706,119.033 353.597,129.198 360.675,132.084C387.93,143.196 387.153,147.222 391.247,176.549C393.071,189.619 400.615,188.271 397.848,200.556C397.381,202.629 398.512,202.332 403.223,226.572C404.649,233.912 411.2,234.102 411.001,238.512C410.591,247.606 405.242,242.793 399.486,243.342C396.354,243.641 396.658,244.05 393.516,244.445C392.084,244.625 392.703,243.613 395.73,226.548C398.281,212.162 382.201,215.3 365.465,214.806C358.313,214.595 373.323,177.966 375.016,169.399C375.987,164.486 373.232,166.039 373.158,166.317C366.916,190.06 364.698,189.339 360.765,213.63C360.343,216.234 296.233,212.427 290.631,212.095C287.909,211.933 286.184,209.596 300.317,179.416C313.367,151.548 323.929,151.568 323.173,144.545C321.935,133.039 328.613,139.167 333.429,141.655C339.963,145.032 332.995,120.28 332.493,118.495ZM293.482,400.762C289.618,400.141 288.925,400.427 288.258,396.561C288.208,396.269 288.272,396.463 282.917,387.251C271.683,367.925 291.252,364.854 303.619,350.653C304.668,349.449 342.043,365.305 375.682,378.05C402.341,388.15 424.461,384.256 419.339,388.397C411.044,395.103 406.659,394.271 408.119,413.559C408.776,422.247 398.643,418.285 393.923,413.115C379.862,397.712 359.736,406.802 293.482,400.762ZM410.833,430.729C406.436,429.084 388.975,426.417 389.168,413.399C389.202,411.095 406.769,429.802 410.634,416.532C413.008,408.377 400.474,385.476 439.517,390.331C470.625,394.2 492.016,395.834 479.655,427.559C468.243,456.85 423.33,445.949 414.046,430.792C408.811,422.244 403.071,422.877 405.665,425.385C408.39,428.019 408.753,427.473 410.833,430.729ZM359.855,328.334C360.881,331.915 360.662,331.918 363.344,334.687C369.861,340.346 360.24,347.406 365.286,357.613C372.075,371.341 368.649,372.522 367.543,372.126C334.012,360.145 315.454,350.015 286.611,341.132C282.321,339.811 277.474,338.318 234.996,319.138C230.877,317.278 240.565,318.008 352.47,321.95C357.38,322.122 355.337,325.301 359.855,328.334ZM318.307,651.588C317.991,650.416 315.847,642.464 317.289,636.445C325.053,604.051 317.491,603.762 317.823,572.545C317.871,568.082 334.144,571.041 335.542,571.295C351.121,574.128 348.345,578.224 348.145,579.44C340.961,623.08 345.336,623.142 347.493,649.501C348.327,659.692 340.43,654.419 339.548,654.233C324.47,651.053 321.59,657.377 318.307,651.588ZM164.491,264.503C163.942,266.456 164.551,267.013 162.554,267.434C159.324,263.069 159.664,261.667 157.707,262.802C154.661,264.568 161.82,273.141 161.794,273.452C161.205,280.393 157.711,273.258 155.61,272.279C146.324,267.955 160.545,281.783 160.485,285.498C160.44,288.243 153.431,282.429 152.918,282.003C141.447,272.488 152.575,256.883 158.817,252.987C177.723,241.189 192.63,259.773 192.941,260.049C212.082,276.946 215.555,274.63 214.397,276.454C209.944,283.469 208.557,283.19 208.9,294.505C209.076,300.324 170.089,296.719 163.52,289.486C158.509,283.969 165.928,282.684 166.521,282.582C167.225,282.288 167.928,281.995 168.631,281.702L169.696,280.709C174.181,271.636 164.897,279.142 163.51,278.481C162.992,278.234 158.555,274.124 168.453,273.278C173.169,272.875 174.883,265.728 168.419,268.199C167.168,268.677 167.248,268.264 165.917,268.338L166.922,264.742C167.144,264.378 181.699,240.084 167.447,259.437C165.96,261.456 162.964,250.757 161.77,255.597C160.915,259.063 163.503,262.863 164.491,264.503ZM365.048,699.061C361.507,700.843 361.311,700.674 315.495,699.841C309.317,699.729 312.609,696.606 312.726,690.507C313,676.236 312.666,652.977 321.729,661.248C336.092,674.357 350.37,654.746 358.78,675.388C363.468,686.894 364.796,697.118 365.048,699.061ZM272.156,82.551C269.106,100.751 271.387,102.637 273.503,107.498C275.218,111.436 287.83,129.105 290.475,130.539C303.725,137.721 308.561,135.467 314.848,128.993C322.075,131.715 303.823,149.563 300.937,159.629C293.633,185.1 292.639,196.037 290.924,187.367C285.49,159.882 287.09,158.933 270.833,136.243C258.086,118.45 262.091,112.167 263.252,110.347C269.083,101.2 267.72,82.464 272.156,82.551ZM321.196,49.962C327.681,54.798 328.087,53.935 328.569,54.428C332.768,58.713 336.968,53.614 340.438,54.698C342.651,55.388 348.564,54.011 344.628,69.534C342.737,76.994 345.202,79.943 337.553,80.857C324.01,82.477 324.717,84.811 323.555,84.769C315.246,84.463 316.091,82.034 316.301,81.431C318.142,76.141 272.052,67.096 301.061,77.535C300.831,77.582 294.788,80.241 290.936,76.106C285.695,70.481 281.475,72.362 282.878,64.794C285.351,63.138 284.842,62.768 284.662,59.671C286.842,57.912 286.607,57.484 293.568,56.839C295.879,56.064 298.19,55.29 300.501,54.516C302.172,59.84 290.098,61.715 289.597,62.538C287.005,66.794 303.832,59.952 303.851,59.947C308.068,56.314 307.709,56.264 310.815,51.773C314.984,47.621 315.61,47.966 321.196,49.962ZM383.593,299.456C383.485,297.843 382.671,285.775 386.433,279.446C387.687,277.337 394.682,278.622 395.389,278.751C397.711,279.178 394.758,282.892 396.573,283.159C398.728,283.475 398.507,283.676 399.469,285.523C400.443,287.394 402.008,282.984 403.544,284.436C407.461,288.139 405.486,283.382 405.318,282.504C404.561,278.554 410.732,282.724 411.118,282.985C418.877,288.228 399.618,313.654 397.904,315.917C394.463,320.46 395.399,314.13 394.272,312.65C390.148,307.236 388.28,308.768 383.593,299.456ZM258.803,111.486C265.597,144.265 278.818,139.062 285.813,171.604C286.829,176.326 282.08,166.945 274.476,159.523C268.947,154.127 267.869,154.395 267.682,146.488C267.639,144.665 259.507,131.726 248.461,133.194C244.362,133.739 241.931,135.991 242.731,132.525C251.712,93.636 266.481,94.784 265.188,98.219C264.897,98.991 261.746,100.259 260.703,101.654C257.76,105.592 259.129,105.972 258.803,111.486ZM282.77,98.383C270.703,70.716 280.743,69.107 282.22,70.752C287.899,77.079 292.717,79.834 291.813,86.525C290.663,95.037 304.974,107.745 316.875,87.82C323.564,76.622 320.826,94.857 320.724,95.54C319.991,100.421 320.63,110.113 313.634,105.326L312.623,104.35C312.347,104.176 306.333,100.376 308.552,104.491L308.574,105.996C300.678,104.859 293.137,100.519 288.823,110.733C286.148,117.067 286.896,106.825 286.923,106.452C285.544,103.166 285.904,103.104 283.696,100.347L282.77,98.383ZM350.524,573.441C348.513,572.734 333.437,567.432 324.506,567.734C317.351,567.976 313.587,571.343 311.783,571.01C309.174,570.528 300.092,548.729 341.53,556.355C355.413,558.91 359.909,558.474 358.52,572.503C357.991,577.842 355.667,575.342 350.524,573.441ZM146.621,247.603C173.936,222.62 191.888,246.19 194.023,251.717C200.127,267.517 187.405,245.066 170.498,246.458C149.882,248.156 146.447,268.704 144.678,267.238C138.562,262.169 145.857,248.984 146.621,247.603ZM419.082,269.672C419.344,270.948 422.272,285.245 416.301,285.715C415.971,285.742 420.508,272.462 408.347,264.759C397.189,257.691 388.731,265.805 389.184,262.546C391.374,246.789 403.01,257.491 405.34,253.432C405.854,252.539 405.537,250.032 392.5,252.399C383.259,254.077 400.592,237.334 416.383,251.623C421.214,255.994 422.698,269.597 418.259,263.717C412.264,255.776 404.707,257.03 407.933,259.08C414.609,263.322 414.867,263.012 419.082,269.672ZM330.182,119.629C334.393,137.459 333.902,138.928 332.537,138.295C324,134.337 319.477,134.996 320.771,145.486C321.235,149.247 313.502,152.016 310.632,156.597C305.422,164.912 297.799,179.789 299.067,174.683C306.577,144.448 314.543,147.857 317.646,135.541C317.807,134.904 317.75,134.942 319.045,127.453C319.468,121.798 326.136,110.147 329.481,117.509C329.789,118.187 329.874,118.951 330.182,119.629ZM197.626,244.453C197.744,245.331 199.73,260.142 197.493,255.516C195.104,250.576 195.971,237.482 171.503,234.473C154.102,232.333 139.974,254.704 146.925,238.692C150.239,231.058 180.338,212.04 197.626,244.453ZM392.489,319.494C387.901,326.759 381.882,339.889 368.824,335.04C368.394,334.881 362.592,329.364 372.487,330.619C383.7,332.041 391.396,317.128 384.567,322.609C383.3,323.626 371.611,333.009 364.613,326.387C357.682,319.828 376.723,326.984 379.35,315.465C381.82,304.628 381.64,300.679 383.221,303.703C386.482,309.941 387.046,309.315 392.145,313.946C393.086,314.8 392.546,319.053 392.489,319.494ZM225.753,285.524C224.247,297.823 226.742,300.776 221.5,300.502C220.715,300.461 221.176,299.728 212.582,296.376C206.667,294.069 216.03,268.98 225.951,279.136C226.476,279.673 226.202,279.651 225.753,285.524ZM388.534,267.522C408.094,253.799 419.269,284.297 413.494,281.579C408.218,279.095 404.944,279.67 407.668,274.557C408.858,272.324 406.899,273.727 404.554,274.12C402.717,274.428 402.667,267.34 400.767,271.622C399.285,274.962 394,270.066 395.5,273.5C397.714,278.568 391.828,275.838 391.481,275.825C385.796,275.61 387.306,273.228 388.534,267.522ZM312.201,89.296C301.537,107.513 288.18,83.291 296.453,82.263C296.921,82.205 302.634,85.89 307.39,84.172C313.181,82.08 316.37,84.702 312.201,89.296ZM306.438,113.716C311.823,115.251 311.7,113.828 317.51,113.827C326.156,113.825 307.061,129.343 311.183,121.385C314.74,114.517 300.985,115.931 301.36,118.509C302.152,123.953 297.257,124.653 292.415,116.531C290.781,106.438 296.865,110.372 306.438,113.716ZM336.454,86.349C337.011,86.476 338.664,86.852 335.279,93.386C326.725,109.9 321.413,89.249 326.468,88.377C331.797,87.458 332.955,90.705 336.454,86.349ZM204.671,303.458C207.578,302.228 223.875,302.207 223.828,304.446C223.672,312.01 223.008,312.866 221.634,312.16C220.277,311.463 205.207,303.717 204.671,303.458ZM273.735,67.002C274.598,74.011 275.466,76.859 270.446,80.131C265.722,79.808 264.87,74.451 263.591,69.5L265.202,69.789C265.488,70.284 267.483,73.746 270.479,74.603C271.115,74.784 269.59,73.597 273.735,67.002ZM326.47,108.482C324.005,111.036 323.39,110.545 320.854,108.126C320.73,108.007 322.458,100.24 322.61,99.557C322.717,99.076 322.954,99.44 328.266,101.992C331.825,103.702 328.731,104.596 326.47,108.482ZM325.514,29.508C327.002,30.248 326.927,30.473 328.568,29.86C328.817,30.847 328.576,30.913 329.499,31.531C330.251,32.035 330.164,31.492 331.039,31.441C332.188,32.694 332.037,32.603 333.534,33.273C331.495,34.882 331.599,34.767 331.494,34.929C330.192,34.618 329.864,35.101 330.602,36.398C328.731,36.916 328.922,37.38 327.187,36.761C327.359,36.032 327.53,35.304 327.702,34.576C325.757,31.165 323.916,31.953 315.525,32.531L313.563,33.158C309.54,30.056 314.431,30.577 321.181,30.189C322.625,29.962 324.069,29.735 325.514,29.508ZM343.6,90.501C338.357,103.103 335.102,100.264 334.839,99.306C334.577,98.349 335.364,98.61 339.911,87.98C340.052,87.651 341.889,84.722 343.6,90.501ZM318.501,28.652L321.4,28.831C321.327,29.283 321.254,29.736 321.181,30.189C314.431,30.577 309.54,30.056 313.563,33.158L314.107,34.322C311.284,35.125 311.499,35.124 308.603,35.438C308.092,34.875 308.098,35.05 306.552,34.59C309.923,28.162 311.273,29.819 318.501,28.652ZM196.721,299.704C198.193,299.501 217.342,296.863 215.291,300.391C214.771,301.284 214.429,299.898 202.385,301.01C200.316,301.582 199.088,301.652 196.454,300.54L196.721,299.704ZM314.107,34.322C313.076,37.397 313.473,37.752 310.339,38.989C309.756,38.955 310.078,37.489 309.496,37.454C306.76,37.291 307.11,40.984 300.165,41.609C300.504,41.255 301.331,40.393 303.462,36.45C303.625,36.535 305.505,37.513 305.505,37.513C305.505,37.513 308.355,35.604 308.603,35.438C311.499,35.124 311.284,35.125 314.107,34.322ZM282.77,98.383L283.696,100.347C283.247,101.062 283.105,100.762 282.641,101.5C282.449,101.806 282.478,101.792 280.438,105.443C280.035,106.089 279.632,106.735 279.229,107.381L277.57,108.378C277.523,107.741 277.477,107.104 277.431,106.467L278.8,104.622C278.034,104.258 277.268,103.895 276.502,103.531C276.92,102.424 277.338,101.318 277.756,100.212C280.522,100.418 279.96,98.84 282.77,98.383ZM277.547,54.704C279.992,54.638 279.943,54.337 281.986,55.409C284.062,60.106 284.651,59.657 284.662,59.671C283.919,60 282.529,61.656 279.448,59.594C276.987,58.556 276.839,58.982 275.722,57.457C276.491,55.922 276.396,56.052 277.547,54.704ZM270.199,63.61C270.33,64.173 271.814,70.566 268.564,70.639C267.908,70.654 266.252,69.069 266.16,65.503C265.943,57.09 270.004,63.312 270.199,63.61ZM318.703,39.351C324.372,37.179 334.506,39.352 335.811,44.546L334.473,44.186C333.381,43.445 330.625,41.575 318.703,39.351ZM310.339,38.989C308.643,40.071 306.946,41.152 305.249,42.233C303.997,42.983 302.744,43.734 301.492,44.484C299.452,45.53 299.693,45.622 297.439,46.007C295.884,46.273 296.296,44.065 296.875,43.901C298.993,43.302 299.397,43.895 300.165,41.609C307.11,40.984 306.76,37.291 309.496,37.454C310.078,37.489 309.756,38.955 310.339,38.989ZM310.815,51.773C307.709,56.264 308.068,56.314 303.851,59.947C303.411,59.127 302.97,58.306 302.53,57.485C308.704,56.059 306.458,52.615 306.246,52.051C309.37,49.66 309.461,51.445 310.815,51.773ZM313.191,40.377L310.452,42.365C305.43,45.086 305.232,46.96 301.492,44.484C302.744,43.734 303.997,42.983 305.249,42.233C309.613,42.634 309.245,38.39 313.191,40.377ZM283.696,100.347C285.904,103.104 285.544,103.166 286.923,106.452C286.486,106.489 281.76,106.897 281.451,106.834C280.889,106.719 281,105.558 280.438,105.443C282.478,101.792 282.449,101.806 282.641,101.5C283.105,100.762 283.247,101.062 283.696,100.347ZM288.492,32.108L289.353,32.078C291.273,33.635 291.184,33.607 293.56,33.634C293.648,34.213 293.737,34.792 293.826,35.371C293.385,35.731 292.943,36.091 292.501,36.451C291.8,36.309 292.052,35.083 283.757,35.004C282.37,33.55 281.678,32.331 283.496,32.784C284.184,32.956 284.813,33.325 285.499,33.502C288.575,34.296 287.938,32.366 288.492,32.108ZM340.66,35.677C336.291,32.892 336.777,32.587 332.54,29.438C328.569,26.487 339.89,27.629 340.66,35.677ZM297.461,34.415C296.289,38.878 294.886,37.387 293.173,38.031L290.464,38.42C287.592,38.357 287.647,38.483 285.5,36.748C287.834,36.649 290.168,36.55 292.501,36.451C292.943,36.091 293.385,35.731 293.826,35.371C295.686,34.711 295.649,35.117 297.461,34.415ZM327.443,43.461C330.728,44.107 330.064,44.912 332.09,47.725L333.25,50.495C332.49,52.76 333.049,55.148 331.957,53.152C329.572,48.794 330.356,48.621 327.435,44.532L327.443,43.461ZM279.448,59.594C282.529,61.656 283.919,60 284.662,59.671C284.842,62.768 285.351,63.138 282.878,64.794C279.778,62.997 278.989,63.12 279.448,59.594ZM316.421,12.249C320.416,15.398 320.277,15.355 324.728,18.07L325.656,19.103C324.748,19.431 323.839,19.758 322.931,20.085C322.146,19.414 321.36,18.742 320.574,18.071C320.294,17.614 319.26,15.926 315.657,13.521C315.912,13.097 316.166,12.673 316.421,12.249ZM327.566,22.581C328.884,22.866 330.202,23.151 331.52,23.436C338.395,25.912 337.601,26.992 337.269,27.444C336.79,28.096 336.788,26.948 327.72,24.129C327.669,23.613 327.618,23.097 327.566,22.581ZM402.476,276.525C405.062,281.704 399.233,282.085 398.865,278.493C398.579,275.703 399.787,276.112 402.476,276.525ZM340.66,35.677C340.418,39.638 341.5,39.424 341.464,43.46C340.94,43.125 340.415,42.79 339.891,42.455C339.261,38.289 336.749,36.95 340.66,35.677ZM291.584,125.165C294.559,127.753 294.587,127.852 298.563,127.507L298.515,128.88L297.179,129.182C294.32,131.132 294.276,129.699 291.589,127.428C291.587,126.674 291.586,125.92 291.584,125.165ZM302.656,32.784C300.924,33.327 299.192,33.871 297.461,34.415C295.649,35.117 295.686,34.711 293.826,35.371C293.737,34.792 293.648,34.213 293.56,33.634C294.192,33.483 301.468,31.74 301.468,31.74C301.995,31.727 302.129,32.796 302.656,32.784ZM359.855,328.334C359.98,328.334 359.89,328.675 360.016,328.674C360.215,328.673 360.016,328.674 362.5,328.468C362.473,330.722 362.257,331.162 364.511,331.5C364.632,333.403 364.447,333.256 363.344,334.687C360.662,331.918 360.881,331.915 359.855,328.334ZM301.512,79.895C301.759,79.913 316.28,82.998 303.532,82.249C303.24,82.232 300.54,82.073 299.997,81.304C299.088,80.016 300.147,80.42 301.512,79.895ZM315.518,22.13C307.634,15.375 321.416,21.887 320.888,23.695C320.5,25.022 320.102,24.078 315.518,22.13ZM281.726,40.435C278.758,42.904 277.235,41.504 277.86,37.811C279.01,31.004 281.141,39.513 281.726,40.435ZM307.673,126.863C310.927,126.82 311.091,126.357 311.174,126.625C312.245,130.083 310.907,130.163 307.198,130.229C307.198,130.005 307.261,130.057 307.506,127.439L307.673,126.863ZM327.479,9.48C326.914,9.43 324.273,9.197 320.767,7.222C320.561,7.106 323.553,2.02 327.479,9.48ZM339.891,42.455C340.415,42.79 340.94,43.125 341.464,43.46C341.182,44.146 339.779,43.814 339.498,44.5C338.993,45.729 339.47,47.157 339.401,48.484C339.281,50.796 333.646,46.604 339.891,42.455ZM334.473,44.186L335.811,44.546C335.033,47.824 334.769,47.586 333.25,50.495L332.09,47.725C332.723,45.578 334.205,44.398 334.473,44.186ZM354.245,48.564C351.782,51.643 352.039,52.316 348.163,52.432C352.246,48.63 353.261,44.77 354.245,48.564ZM331.494,34.929C332.483,35.464 333.471,35.999 334.46,36.533C341.099,44.667 330.845,36.589 330.602,36.398C329.864,35.101 330.192,34.618 331.494,34.929ZM327.701,15.685C328.028,15.982 330.648,18.362 331.883,19.298C332.722,20.316 332.547,20.167 333.083,21.272L332.128,22.079C330.907,21.093 328.887,19.374 328.607,19.137C328.092,18.162 327.578,17.188 327.063,16.214L327.701,15.685ZM348.698,54.58L349.519,54.551C349.683,54.899 350.754,57.171 353.292,57.53C353.199,57.792 352.556,59.598 351.453,60.48C351.16,58.751 351.143,58.579 349.37,58.483C349.146,57.182 348.922,55.881 348.698,54.58ZM284.526,51.405C287.955,51.05 288.65,50.204 290.492,53.522C286.835,53.456 285.953,54.764 284.526,51.405ZM348.608,33.533C349.771,35.641 349.477,35.59 349.323,38.148C349,38.59 348.677,39.033 348.353,39.476C345.068,36.814 347.063,36.224 348.608,33.533ZM290.651,31.638L289.353,32.078L288.492,32.108C288.181,32.03 284.807,31.184 284.814,30.518C284.819,30.043 285.21,27.618 290.651,31.638ZM297.56,48.659C300.533,47.879 300.478,47.631 303.44,48.693C300.683,49.419 300.825,49.66 300.584,49.661L299.411,50.243C298.45,50.004 297.489,49.765 296.529,49.527C296.873,49.237 297.216,48.948 297.56,48.659ZM285.5,36.748C287.647,38.483 287.592,38.357 290.464,38.42C288.69,40.093 288.741,39.976 286.451,40.612C285.505,38.896 285.171,39.33 284.175,37.689C284.617,37.375 285.059,37.061 285.5,36.748ZM306.246,52.051C306.458,52.615 308.704,56.059 302.53,57.485C302.955,56.579 303.381,55.672 303.806,54.765C304.619,53.86 305.433,52.956 306.246,52.051ZM308.552,104.491C312.523,106.186 312.255,104.547 312.623,104.35L313.634,105.326C312.346,107.154 312.097,108.437 308.574,105.996L308.552,104.491ZM307.267,111.347C307.678,111.163 310.965,109.689 312.887,111.121C313.248,111.39 313.15,114.569 307.267,111.347ZM315.313,14.29C317.925,16.493 317.925,16.461 318.134,16.669C319.115,17.642 318.755,17.788 319.794,18.818C317.723,19.284 313.368,17.303 315.313,14.29ZM164.491,264.503C165.302,264.583 166.112,264.662 166.922,264.742L165.917,268.338C164.796,268.037 163.675,267.735 162.554,267.434C164.551,267.013 163.942,266.456 164.491,264.503ZM302.666,123.689C302.736,124.359 305.903,126.656 301.618,129.007C301.249,128.52 300.88,128.033 300.511,127.547C301.311,126.15 300.924,126.107 301.792,124.697L302.666,123.689ZM328.866,15.162C321.136,6.314 331.513,15.229 331.672,15.389C330.737,15.313 329.801,15.237 328.866,15.162ZM320.873,10.732C322.643,9.248 322.834,9.925 324.249,11.748C334.193,24.563 321.061,10.943 320.873,10.732ZM309.555,47.598C304.206,49.837 308.938,44.181 311.371,44.978C313.658,45.727 311.338,46.081 309.555,47.598ZM357.994,323.517C359.667,321.89 359.939,320.718 361.488,322.511C361.678,322.731 362.828,327.172 357.994,323.517ZM327.701,15.685L328.866,15.162C329.801,15.237 330.737,15.313 331.672,15.389C332.552,17.322 332.744,17.266 331.883,19.298C330.648,18.362 328.028,15.982 327.701,15.685ZM261.507,108.479C259.603,101.439 263.847,103.294 263.848,103.343C263.868,104.401 263.66,104.316 261.507,108.479ZM305.991,127.782C306.496,127.668 307.001,127.554 307.506,127.439C307.261,130.057 307.198,130.005 307.198,130.229C306.519,132.493 306.665,132.372 306.519,132.493C303.756,134.797 305.875,128.143 305.991,127.782ZM322.665,21.551C325.292,21.947 325.092,22.193 327.566,22.581C327.618,23.097 327.669,23.613 327.72,24.129C326.327,23.897 324.934,23.665 323.541,23.433C323.249,22.806 322.957,22.178 322.665,21.551ZM293.488,40.517L293.933,41.359C293.665,41.52 291.488,42.835 290.482,43.187C289.52,42.951 288.557,42.714 287.594,42.477C290.539,41.382 290.305,41.37 293.488,40.517ZM327.063,16.214C327.578,17.188 328.092,18.162 328.607,19.137C327.119,19.493 327.311,19.654 325.656,19.103L324.728,18.07C325.006,16.343 325.474,16.861 327.063,16.214ZM306.552,34.59C308.098,35.05 308.092,34.875 308.603,35.438C308.355,35.604 305.505,37.513 305.505,37.513C305.505,37.513 303.625,36.535 303.462,36.45L306.552,34.59ZM291.584,125.165C291.586,125.92 291.587,126.674 291.589,127.428C291.269,127.178 270.851,108.751 289.283,122.905C289.488,123.062 289.454,123.072 291.584,125.165ZM334.552,85.414C334.139,86.094 334.531,87.806 330.733,87.164C312.095,84.017 334.217,85.386 334.552,85.414ZM303.44,48.693C306.729,49.909 304.018,50.85 303.417,51.389C301.724,52.904 301.774,51.593 300.584,49.661C300.825,49.66 300.683,49.419 303.44,48.693ZM312.693,43.225C313.958,41.15 314.078,40.936 316.6,41.354C316.942,41.411 318.133,44.052 312.693,43.225ZM274.836,64.526C280.05,61.899 277.257,68.824 276.452,68.148C276.209,67.944 276.332,67.88 274.836,64.526ZM349.519,54.551C349.658,54.546 351.516,51.86 353.177,56.555L353.292,57.53C350.754,57.171 349.683,54.899 349.519,54.551ZM356.99,48.098C356.881,47.755 356.141,45.445 356.728,43.604C356.97,42.845 360.374,43.48 356.99,48.098ZM315.657,13.521C319.26,15.926 320.294,17.614 320.574,18.071L319.794,18.818C318.755,17.788 319.115,17.642 318.134,16.669C317.925,16.461 317.925,16.493 315.313,14.29L315.657,13.521ZM293.933,41.359C294.154,42.107 294.375,42.854 294.597,43.602C292.47,44.512 292.453,44.468 290.482,43.187C291.488,42.835 293.665,41.52 293.933,41.359ZM319.266,43.381C322.081,41.755 323.566,41.868 323.291,45.191L322.507,45.507C321.861,45.105 321.214,44.702 320.568,44.3L319.266,43.381ZM323.418,27.776C324.363,27.952 325.307,28.128 326.251,28.305L325.514,29.508C324.069,29.735 322.625,29.962 321.181,30.189C321.254,29.736 321.327,29.283 321.4,28.831C322.073,28.479 322.745,28.127 323.418,27.776ZM325.562,47.185C325.832,47.443 328.269,49.772 327.412,51.481C327.301,51.702 323.316,50.156 325.562,47.185ZM296.586,39.558C296.715,39.467 302.358,35.515 298.372,40.399C297.278,41.74 296.63,41.199 296.586,39.558ZM343.052,49.36C341.72,50.341 341.132,51.652 340.982,50.006C340.958,49.742 341.67,47.242 341.919,46.827C342.034,46.637 344.321,45.546 343.052,49.36ZM301.792,124.697C300.924,126.107 301.311,126.15 300.511,127.547L298.515,128.88L298.563,127.507C299.407,125.362 299.863,125.852 301.792,124.697ZM354.584,39.222C357.419,43.879 353.633,44.497 353.615,43.429C353.567,40.435 354.464,39.743 354.584,39.222ZM293.427,49.154C291.165,48.471 291.151,48.659 291.165,48.471C291.206,47.899 297.217,43.507 293.427,49.154ZM350.018,45.741C349.485,47.339 349.917,47.565 348.488,48.473C346.632,49.653 345.98,45.36 350.018,45.741ZM333.534,33.273C334.78,34.586 334.348,34.606 334.46,36.533C333.471,35.999 332.483,35.464 331.494,34.929C331.599,34.767 331.495,34.882 333.534,33.273ZM165.686,279.484C167.996,280.311 167.82,280.223 167.996,280.311C168.785,280.707 167.748,281.259 168.631,281.702C167.928,281.995 167.225,282.288 166.521,282.582C164.693,280.443 165.591,280.357 165.686,279.484ZM319.581,33.807C321.399,33.89 322.077,33.345 322.074,35.202C320.432,35.498 320.607,35.497 319.023,35.373C319.209,34.851 319.395,34.329 319.581,33.807ZM277.756,100.212C277.338,101.318 276.92,102.424 276.502,103.531L275.862,104.224C275.62,103.655 275.379,103.086 275.138,102.517C276.283,101.018 276.253,101.208 277.756,100.212ZM349.37,58.483C351.143,58.579 351.16,58.751 351.453,60.48C351.182,60.936 350.912,61.392 350.642,61.848C350.218,60.726 349.794,59.605 349.37,58.483ZM279.501,111.5C279.688,111.339 282.483,108.937 282.432,110.543C282.35,113.123 281.137,113.549 279.501,111.5ZM324.541,34.339C325.594,34.418 326.648,34.497 327.702,34.576C327.53,35.304 327.359,36.032 327.187,36.761C325.426,36.034 325.439,36.096 324.541,34.339ZM342.385,26.286C343.153,29.098 343.329,29.099 343.214,29.323C342.937,29.862 339.467,30.229 342.385,26.286ZM362.5,328.468C364.092,329.502 363.845,329.593 364.511,331.5C362.257,331.162 362.473,330.722 362.5,328.468ZM269.561,57.426L271.714,59.316C270.48,59.413 270.541,60.296 269.503,59.49C268.94,59.052 269.093,59.147 268.591,58.726L269.561,57.426ZM354.47,51.511C354.586,52.604 354.703,53.697 354.82,54.79C353.292,53.036 352.549,52.588 354.47,51.511ZM337.277,19.767C337.117,19.572 332.536,13.987 336.5,16.711C339.039,18.456 337.076,18.976 337.277,19.767ZM165.686,279.484C167.902,279.389 167.921,279.107 169.696,280.709L168.631,281.702C167.748,281.259 168.785,280.707 167.996,280.311C167.82,280.223 167.996,280.311 165.686,279.484ZM343.614,25.487C344.437,17.721 345.361,26.316 345.37,26.478C344.785,26.147 344.2,25.817 343.614,25.487ZM328.568,29.86C330.237,29.846 330.397,29.747 331.039,31.441C330.164,31.492 330.251,32.035 329.499,31.531C328.576,30.913 328.817,30.847 328.568,29.86ZM318.453,45.209C319.508,45.604 320.563,46 321.618,46.395C320.46,46.478 319.303,46.561 318.146,46.644L318.453,45.209ZM345.37,26.478C349.038,28.948 345.823,29.312 345.622,29.22C345.422,29.128 344.809,28.846 345.37,26.478ZM343.685,33.359C343.786,32.123 343.243,31.687 344.48,31.443C344.664,31.406 347.088,31.302 344.538,33.791L343.685,33.359ZM351.565,40.116C352.392,41.66 352.179,41.638 351.391,43.243C350.549,41.702 350.788,41.702 351.565,40.116ZM284.809,116.52C284.367,116.991 283.924,117.461 283.482,117.932C282.288,115.982 284.668,114.392 284.809,116.52ZM273.599,89.632C275.089,90.369 274.705,90.745 273.425,91.816C272.686,90.688 273.085,90.779 273.599,89.632ZM246.49,112.209C245.685,110.718 245.113,110.539 246.478,109.459C248.383,107.95 247.25,110.06 246.49,112.209ZM342.585,83.674C344.06,84.631 344.672,84.416 344.224,85.406C342.162,89.958 342.572,83.864 342.585,83.674ZM334.513,22.102C335.498,20.418 336.368,20.665 336.744,22.548C336.951,23.583 336.247,23.335 334.513,22.102ZM261.721,59.324C260.551,62.981 259.685,61.833 259.531,61.63C258.445,60.191 259.729,60.509 261.721,59.324ZM318.695,655.581C318.57,655.692 315.238,658.651 316.609,655.634C317.158,654.425 317.341,654.421 317.46,654.418C318.494,654.392 317.674,655.607 318.695,655.581ZM320.48,110.492C319.522,112.125 319.192,112.974 318.268,111.452C318.167,111.287 317.677,110.48 320.48,110.492Z" style="fill-opacity:0.89;"/>
                <path d="M123.244,395.469C120.906,419.395 122.626,428.275 112.471,429.119C90.362,430.956 87.541,427.591 86.3,418.52C84.049,402.055 84.418,374.089 79.928,367.312C77.042,362.955 82.436,363.714 84.135,356.391C85.898,348.792 121.474,351.463 123.314,356.578C125.761,363.383 129.646,363.368 125.897,369.683C125.699,370.017 123.443,393.404 123.244,395.469ZM106.5,370.221C117.662,369.76 123.684,365.396 122.698,376.519C119.092,417.208 120.865,418.557 117.551,419.585C110.168,421.877 89.671,421.463 88.98,418.3C88.686,416.952 84.281,370.285 84.771,369.77C85.038,369.49 104.763,370.161 106.5,370.221ZM117.442,355.888C137.815,362.09 86.462,362.622 86.251,359.568C85.656,350.93 110.034,355.2 117.442,355.888ZM85.51,362.991C104.766,363.721 104.531,363.364 123.558,363.126C134.082,362.994 121.006,370.681 83.412,366.748C83.07,366.712 78.324,363.86 85.51,362.991ZM96.508,423.199C116.678,423.08 117.705,421.766 117.714,423.462C117.763,433.671 63.165,418.456 96.508,423.199Z" style="fill-opacity:0.94;"/>
                <path d="M282.516,10.524C285.249,11.735 285.726,13.343 287.008,11.024C287.832,9.532 288.119,10.32 289.853,10.276C291.357,11.323 291.057,11.482 292.523,12.556C290.277,13.413 290.328,13.231 288.593,14.9C288.135,15.047 267.88,21.557 283.586,18.235C288.599,17.175 288.416,17.065 293.454,16.356L295.542,16.308C300.02,17.501 299.924,17.489 304.506,17.499C306.251,19.881 306.638,19.025 309.393,19.583C309.747,20.259 310.1,20.936 310.454,21.613C309.854,21.637 310.097,21.267 309.642,21.286C309.31,21.299 309.335,21.314 305.504,21.663L302.562,21.707C301.921,21.706 270.466,21.687 294.687,23.122C292.165,23.984 292.227,24.159 289.717,23.402C289.038,23.09 289.115,23.126 280.478,24.711C278.71,20.8 275.636,22.414 276.483,26.489C275.736,27.13 274.99,27.771 274.244,28.412C273.827,29.105 267.633,33.187 272.417,32.251C272.668,32.202 272.643,32.179 275.471,31.283C275.85,31.102 276.228,30.922 276.607,30.741C277.426,29.604 277.28,29.65 277.405,28.368C279.656,27.425 279.752,27.739 281.398,29.395L281.819,30.53C277.773,30.77 278.032,32.337 277.842,32.543C277.066,32.873 276.291,33.203 275.515,33.534C271.13,37.483 268.794,35.32 267.161,40.855L268.414,42.428C254.035,49.481 253.786,42.377 254.68,41.736C255.527,41.129 258.111,43.415 261.652,42.75C261.671,42.746 262.501,42.986 263.196,36.442C263.325,32.601 261.257,32.5 263.112,29.193C267.671,25.171 267.381,25.053 272.002,21.026C275.507,17.525 279.011,14.024 282.516,10.524ZM288.689,18.702C302.282,17.96 302.092,19.533 304.52,20.47C292.235,20.226 292.309,20.213 289.526,20.192C288.839,19.436 288.992,19.54 288.689,18.702ZM266.47,37.489C266.019,34.509 265.202,34.335 266.762,32.868C270.38,29.465 266.632,37.156 266.47,37.489ZM288.689,18.702C288.992,19.54 288.839,19.436 289.526,20.192C288.825,20.622 288.124,21.051 287.424,21.48C284.814,20.871 285.039,20.861 284.825,20.871C286.354,19.098 286.29,19.155 288.689,18.702ZM284.825,20.871C285.039,20.861 284.814,20.871 287.424,21.48C287.226,21.56 280.628,24.234 284.825,20.871ZM273.618,23.434C272.402,27.961 270.854,25.776 270.855,25.5C270.856,24.211 271.332,24.578 273.618,23.434ZM268.475,28.44C272.734,28.539 267.685,30.359 267.519,30.419C267.867,29.838 267.346,29.932 267.568,29.56C267.627,29.461 267.568,29.56 268.475,28.44Z" style="fill-opacity:0.94;"/>
                <path d="M298.822,266.491C299.052,265.286 301.39,253.069 311.672,258.119C325.18,264.752 303.014,284.713 298.822,266.491ZM301.441,267.515C301.374,266.683 300.751,258.99 308.474,259.803C319.785,260.993 308.051,279.116 301.441,267.515Z" style="fill-opacity:0.96;"/>
                <path d="M190.535,286.533C182.246,296.13 183.562,269.569 186.508,270.476C196.123,273.433 200.057,264.819 202.434,272.52C203.592,276.271 195.209,285.213 191.024,274.893C190.819,274.387 185.056,270.894 187.307,280.617C187.952,283.402 190.902,278.715 191.67,281.422C192.738,285.184 203.707,289.488 196.497,287.644C193.466,286.869 193.586,287.102 190.535,286.533ZM193.623,273.556C196.133,271.6 196.141,270.619 199.129,271.987C202.657,273.603 194.583,282.385 193.623,273.556Z" style="fill-opacity:0.89;"/>
                <path d="M98.381,392.476C98.265,392.958 90.399,424.971 94.754,397.487C97.738,378.653 103.262,381.732 104.045,382.874C105.728,385.328 107.434,400.967 109.048,395.288C109.262,394.532 117.341,366.096 113.409,386.487C113.21,387.518 109.515,406.682 105.1,396.659C104.145,394.49 103.045,385.383 102.273,384.802C99.794,382.937 100.602,385.651 98.381,392.476Z" style="fill-opacity:0.96;"/>
                <path d="M400.799,300.627L398.576,302.674C396.424,307.297 395.597,302.714 395.554,302.476C395.27,300.897 389.535,303.822 391.658,300.585C393.716,297.447 386.644,295.735 390.302,295.124C392.384,294.777 392.386,294.313 391.639,292.465C390.35,289.277 395.351,293.332 395.971,291.953C396.924,289.834 398.036,290.355 398.447,292.52C398.93,295.068 401.264,291.436 402.277,293.61C403.282,295.77 401.109,296.677 403.279,297.857C405.801,299.228 402.334,299.314 400.799,300.627ZM397.444,300.059C392.553,298.274 397.212,293.016 398.644,296.427C399.514,298.5 399.021,298.467 397.444,300.059Z" style="fill-opacity:0.89;"/>
                <path d="M325.514,29.508C327.002,30.248 326.927,30.473 328.568,29.86C328.817,30.847 328.576,30.913 329.499,31.531C330.251,32.035 330.164,31.492 331.039,31.441C332.188,32.694 332.037,32.603 333.534,33.273C331.495,34.882 331.599,34.767 331.494,34.929C330.192,34.618 329.864,35.101 330.602,36.398C328.731,36.916 328.922,37.38 327.187,36.761C327.359,36.032 327.53,35.304 327.702,34.576C325.757,31.165 323.916,31.953 315.525,32.531L313.563,33.158C309.54,30.056 314.431,30.577 321.181,30.189C322.625,29.962 324.069,29.735 325.514,29.508Z" style="fill-opacity:0.69;"/>
                <path d="M164.491,264.503C163.503,262.863 160.915,259.063 161.77,255.597C162.964,250.757 165.96,261.456 167.447,259.437C181.699,240.084 167.144,264.378 166.922,264.742C166.112,264.662 165.302,264.583 164.491,264.503Z" style="fill-opacity:0.9;"/>
                <path d="M301.56,7.823C299.822,9.538 301.6,10.143 301.949,10.858C302.474,11.968 302.273,11.886 303.447,12.577L302.597,13.745C298.394,13.028 298.818,11.799 294.513,12.045L292.523,12.556C291.057,11.482 291.357,11.323 289.853,10.276C290.569,7.857 291.466,8.884 298.382,8.213C300.131,7.704 299.991,8.223 301.56,7.823Z" style="fill-opacity:0.94;"/>
                <path d="M305.435,6.244C307.836,10.731 308.951,8.201 310.497,8.13C312.313,8.206 312.132,8.054 313.807,7.174C315.793,9.168 314.735,9.588 311.394,16.058L303.447,12.577C302.273,11.886 302.474,11.968 301.949,10.858L302.682,10.719C309.832,13.489 309.76,13.556 310.404,13.711C310.899,13.83 311.174,12.737 311.668,12.857C311.296,12.509 312.046,11.676 311.673,11.329C311.673,11.329 307.842,9.856 307.509,9.728C306.438,9.247 305.366,8.767 304.295,8.286C304.542,7.095 304.422,7.172 305.435,6.244Z" style="fill-opacity:0.47;"/>
                <path d="M300.501,54.516C302.22,54.454 302.063,54.801 303.806,54.765C303.381,55.672 302.955,56.579 302.53,57.485C302.97,58.306 303.411,59.127 303.851,59.947C303.832,59.952 287.005,66.794 289.597,62.538C290.098,61.715 302.172,59.84 300.501,54.516Z" style="fill-opacity:0.93;"/>
                <path d="M294.513,12.045C298.818,11.799 298.394,13.028 302.597,13.745C305.342,16.581 305.213,16.754 309.797,17.691C309.662,18.322 309.528,18.952 309.393,19.583C306.638,19.025 306.251,19.881 304.506,17.499C298.342,15.903 298.31,14.928 295.542,16.308L293.454,16.356C292.802,15.995 292.151,15.633 291.5,15.272C291.834,15.143 295.681,13.659 295.681,13.659C296.077,13.126 294.116,12.578 294.513,12.045Z" style="fill-opacity:0.74;"/>
                <path d="M308.467,23.343C309.493,23.602 310.52,23.861 311.546,24.12C310.494,25.45 311.093,26.3 307.517,28.524C306.982,28.421 307.421,27.12 306.886,27.017C306.704,26.982 297.29,29.197 296.457,29.393C296.021,29.138 296.543,27.536 292.549,28.616C291.89,28.277 291.232,27.939 290.573,27.601L291.428,27.331C300.399,25.393 301.449,28.451 303.482,25.399C306.743,25.192 307.884,26.444 308.467,23.343Z" style="fill-opacity:0.74;"/>
                <path d="M295.45,5.061C297.291,6.603 298.189,7.928 298.382,8.213C291.466,8.884 290.569,7.857 289.853,10.276C288.119,10.32 287.832,9.532 287.008,11.024C285.726,13.343 285.249,11.735 282.516,10.524C288.703,6.931 288.447,6.722 295.45,5.061Z" style="fill-opacity:0.8;"/>
                <path d="M278.592,43.822C279.273,43.933 279.954,44.045 280.634,44.156C281.683,44.302 282.731,44.448 283.78,44.594L283.506,45.448C281.148,46.316 278.478,45.097 280.453,46.572C280.898,46.905 280.849,46.869 287.367,47.213C286.611,51.755 278.305,49.61 274.359,45.096C275.77,44.672 277.181,44.247 278.592,43.822Z" style="fill-opacity:0.69;"/>
                <path d="M289.717,23.402C292.227,24.159 292.165,23.984 294.687,23.122L295.659,23.299C297.654,26.165 298.255,24.915 303.482,25.399C301.449,28.451 300.399,25.393 291.428,27.331C290.448,27.069 289.469,26.808 288.49,26.546C286.063,27.944 286.003,27.326 283.408,26.337C289.37,24.1 289.11,23.761 289.717,23.402Z" style="fill-opacity:0.77;"/>
                <path d="M318.501,28.652L321.4,28.831C321.327,29.283 321.254,29.736 321.181,30.189C314.431,30.577 309.54,30.056 313.563,33.158L314.107,34.322C311.284,35.125 311.499,35.124 308.603,35.438C308.092,34.875 308.098,35.05 306.552,34.59C309.923,28.162 311.273,29.819 318.501,28.652Z" style="fill-opacity:0.56;"/>
                <path d="M196.721,299.704C198.193,299.501 217.342,296.863 215.291,300.391C214.771,301.284 214.429,299.898 202.385,301.01C200.316,301.582 199.088,301.652 196.454,300.54L196.721,299.704Z" style="fill-opacity:0.07;"/>
                <path d="M314.107,34.322C313.076,37.397 313.473,37.752 310.339,38.989C309.756,38.955 310.078,37.489 309.496,37.454C306.76,37.291 307.11,40.984 300.165,41.609C300.504,41.255 301.331,40.393 303.462,36.45C303.625,36.535 305.505,37.513 305.505,37.513C305.505,37.513 308.355,35.604 308.603,35.438C311.499,35.124 311.284,35.125 314.107,34.322Z" style="fill-opacity:0.64;"/>
                <path d="M282.77,98.383L283.696,100.347C283.247,101.062 283.105,100.762 282.641,101.5C282.449,101.806 282.478,101.792 280.438,105.443C280.035,106.089 279.632,106.735 279.229,107.381L277.57,108.378C277.523,107.741 277.477,107.104 277.431,106.467L278.8,104.622C278.034,104.258 277.268,103.895 276.502,103.531C276.92,102.424 277.338,101.318 277.756,100.212C280.522,100.418 279.96,98.84 282.77,98.383Z" style="fill-opacity:0.77;"/>
                <path d="M277.547,54.704C279.992,54.638 279.943,54.337 281.986,55.409C284.062,60.106 284.651,59.657 284.662,59.671C283.919,60 282.529,61.656 279.448,59.594C276.987,58.556 276.839,58.982 275.722,57.457C276.491,55.922 276.396,56.052 277.547,54.704Z" style="fill-opacity:0.43;"/>
                <path d="M315.525,32.531C317.049,34.81 317.541,33.62 319.581,33.807C319.395,34.329 319.209,34.851 319.023,35.373C317.175,35.789 316.797,35.491 316.5,37.496L315.536,37.747C315.486,37.935 315.435,38.124 315.385,38.312C313.593,40.08 313.665,40.079 313.191,40.377C309.245,38.39 309.613,42.634 305.249,42.233C306.946,41.152 308.643,40.071 310.339,38.989C313.473,37.752 313.076,37.397 314.107,34.322L313.563,33.158L315.525,32.531Z" style="fill-opacity:0.85;"/>
                <path d="M318.703,39.351C324.372,37.179 334.506,39.352 335.811,44.546L334.473,44.186C333.381,43.445 330.625,41.575 318.703,39.351Z" style="fill-opacity:0.29;"/>
                <path d="M310.339,38.989C308.643,40.071 306.946,41.152 305.249,42.233C303.997,42.983 302.744,43.734 301.492,44.484C299.452,45.53 299.693,45.622 297.439,46.007C295.884,46.273 296.296,44.065 296.875,43.901C298.993,43.302 299.397,43.895 300.165,41.609C307.11,40.984 306.76,37.291 309.496,37.454C310.078,37.489 309.756,38.955 310.339,38.989Z" style="fill-opacity:0.64;"/>
                <path d="M290.651,31.638C301.612,30.788 303.064,28.505 304.587,31.786L302.656,32.784C302.129,32.796 301.995,31.727 301.468,31.74C301.468,31.74 294.192,33.483 293.56,33.634C291.184,33.607 291.273,33.635 289.353,32.078L290.651,31.638Z" style="fill-opacity:0.86;"/>
                <path d="M310.815,51.773C307.709,56.264 308.068,56.314 303.851,59.947C303.411,59.127 302.97,58.306 302.53,57.485C308.704,56.059 306.458,52.615 306.246,52.051C309.37,49.66 309.461,51.445 310.815,51.773Z" style="fill-opacity:0.83;"/>
                <path d="M270.465,47.385C271.206,47.798 271.947,48.211 272.688,48.624C269.557,48.663 268.187,48.771 269.512,51.447L268.505,51.454C264.6,50.711 263.6,51.398 263.807,49.453C264.01,47.552 264.697,48.312 270.465,47.385Z" style="fill-opacity:0.4;"/>
                <path d="M313.191,40.377L310.452,42.365C305.43,45.086 305.232,46.96 301.492,44.484C302.744,43.734 303.997,42.983 305.249,42.233C309.613,42.634 309.245,38.39 313.191,40.377Z" style="fill-opacity:0.66;"/>
                <path d="M283.696,100.347C285.904,103.104 285.544,103.166 286.923,106.452C286.486,106.489 281.76,106.897 281.451,106.834C280.889,106.719 281,105.558 280.438,105.443C282.478,101.792 282.449,101.806 282.641,101.5C283.105,100.762 283.247,101.062 283.696,100.347Z" style="fill-opacity:0.81;"/>
                <path d="M288.492,32.108L289.353,32.078C291.273,33.635 291.184,33.607 293.56,33.634C293.648,34.213 293.737,34.792 293.826,35.371C293.385,35.731 292.943,36.091 292.501,36.451C291.8,36.309 292.052,35.083 283.757,35.004C282.37,33.55 281.678,32.331 283.496,32.784C284.184,32.956 284.813,33.325 285.499,33.502C288.575,34.296 287.938,32.366 288.492,32.108Z" style="fill-opacity:0.44;"/>
                <path d="M303.5,22.675C305.575,22.934 308.07,23.287 308.467,23.343C307.884,26.444 306.743,25.192 303.482,25.399C298.255,24.915 297.654,26.165 295.659,23.299C299.772,23.305 299.669,24.053 303.5,22.675Z" style="fill-opacity:0.37;"/>
                <path d="M288.689,18.702C302.282,17.96 302.092,19.533 304.52,20.47C292.235,20.226 292.309,20.213 289.526,20.192C288.839,19.436 288.992,19.54 288.689,18.702Z" style="fill-opacity:0.18;"/>
                <path d="M315.525,32.531C323.916,31.953 325.757,31.165 327.702,34.576C326.648,34.497 325.594,34.418 324.541,34.339C323.718,34.627 322.896,34.914 322.074,35.202C322.077,33.345 321.399,33.89 319.581,33.807C317.541,33.62 317.049,34.81 315.525,32.531Z" style="fill-opacity:0.93;"/>
                <path d="M294.617,203.049C294.977,203.255 299.075,205.596 295.312,208.191C293.209,209.642 287.818,204.782 294.617,203.049Z" style="fill-opacity:0.9;"/>
                <path d="M340.66,35.677C336.291,32.892 336.777,32.587 332.54,29.438C328.569,26.487 339.89,27.629 340.66,35.677Z" style="fill-opacity:0.25;"/>
                <path d="M325.656,19.103C327.311,19.654 327.119,19.493 328.607,19.137C328.887,19.374 330.907,21.093 332.128,22.079L331.52,23.436C330.202,23.151 328.884,22.866 327.566,22.581C325.092,22.193 325.292,21.947 322.665,21.551L322.931,20.085C323.839,19.758 324.748,19.431 325.656,19.103Z" style="fill-opacity:0.95;"/>
                <path d="M297.461,34.415C296.289,38.878 294.886,37.387 293.173,38.031L290.464,38.42C287.592,38.357 287.647,38.483 285.5,36.748C287.834,36.649 290.168,36.55 292.501,36.451C292.943,36.091 293.385,35.731 293.826,35.371C295.686,34.711 295.649,35.117 297.461,34.415Z" style="fill-opacity:0.38;"/>
                <path d="M303.447,12.577L311.394,16.058L309.797,17.691C305.213,16.754 305.342,16.581 302.597,13.745L303.447,12.577Z" style="fill-opacity:0.76;"/>
                <path d="M327.443,43.461C330.728,44.107 330.064,44.912 332.09,47.725L333.25,50.495C332.49,52.76 333.049,55.148 331.957,53.152C329.572,48.794 330.356,48.621 327.435,44.532L327.443,43.461Z" style="fill-opacity:0.43;"/>
                <path d="M274.48,39.221C276.022,40.17 276.348,39.668 279.758,43.868L278.592,43.822C277.181,44.247 275.77,44.672 274.359,45.096L273.492,45.49C265.642,47.015 275.432,42.657 275.539,42.508C275.613,42.405 275.539,42.508 274.463,41.338C274.469,40.632 274.475,39.927 274.48,39.221Z" style="fill-opacity:0.47;"/>
                <path d="M279.448,59.594C282.529,61.656 283.919,60 284.662,59.671C284.842,62.768 285.351,63.138 282.878,64.794C279.778,62.997 278.989,63.12 279.448,59.594Z" style="fill-opacity:0.8;"/>
                <path d="M316.421,12.249C320.416,15.398 320.277,15.355 324.728,18.07L325.656,19.103C324.748,19.431 323.839,19.758 322.931,20.085C322.146,19.414 321.36,18.742 320.574,18.071C320.294,17.614 319.26,15.926 315.657,13.521C315.912,13.097 316.166,12.673 316.421,12.249Z" style="fill-opacity:0.5;"/>
                <path d="M302.562,21.707L305.504,21.663C309.335,21.314 309.31,21.299 309.642,21.286C310.097,21.267 309.854,21.637 310.454,21.613C311.913,22.285 313.372,22.957 314.832,23.628L314.422,24.309C313.463,24.246 312.504,24.183 311.546,24.12C310.52,23.861 309.493,23.602 308.467,23.343C308.07,23.287 305.575,22.934 303.5,22.675L302.562,21.707Z" style="fill-opacity:0.2;"/>
                <path d="M288.593,14.9C288.823,14.945 288.732,14.8 291.5,15.272C292.151,15.633 292.802,15.995 293.454,16.356C288.416,17.065 288.599,17.175 283.586,18.235C267.88,21.557 288.135,15.047 288.593,14.9Z" style="fill-opacity:0.41;"/>
                <path d="M327.566,22.581C328.884,22.866 330.202,23.151 331.52,23.436C338.395,25.912 337.601,26.992 337.269,27.444C336.79,28.096 336.788,26.948 327.72,24.129C327.669,23.613 327.618,23.097 327.566,22.581Z" style="fill-opacity:0.35;"/>
                <path d="M275.515,33.534C276.648,37.992 273.569,36.396 267.161,40.855C268.794,35.32 271.13,37.483 275.515,33.534Z" style="fill-opacity:0.53;"/>
                <path d="M354.245,48.564C354.774,49.354 354.533,49.345 354.47,51.511C352.549,52.588 353.292,53.036 354.82,54.79C354.272,55.378 353.724,55.967 353.177,56.555C351.516,51.86 349.658,54.546 349.519,54.551L348.698,54.58C348.406,53.936 348.114,53.292 347.823,52.648L348.163,52.432C352.039,52.316 351.782,51.643 354.245,48.564Z" style="fill-opacity:0.85;"/>
                <path d="M302.562,21.707L303.5,22.675C299.669,24.053 299.772,23.305 295.659,23.299L294.687,23.122C270.466,21.687 301.921,21.706 302.562,21.707Z" style="fill-opacity:0.51;"/>
                <path d="M274.463,41.338C275.539,42.508 275.613,42.405 275.539,42.508C275.432,42.657 265.642,47.015 273.492,45.49C273.489,46.989 273.321,46.799 273.317,48.472L272.688,48.624C271.947,48.211 271.206,47.798 270.465,47.385C269.795,45.687 269.798,45.839 268.478,44.409L274.463,41.338Z" style="fill-opacity:0.85;"/>
                <path d="M303.587,8.636L304.295,8.286C305.366,8.767 306.438,9.247 307.509,9.728C308.881,11.902 309.126,11.425 311.668,12.857C311.174,12.737 310.899,13.83 310.404,13.711C309.76,13.556 309.832,13.489 302.682,10.719L303.587,8.636Z" style="fill-opacity:0.74;"/>
                <path d="M289.717,23.402C289.11,23.761 289.37,24.1 283.408,26.337L282.628,26.709C281.474,26.79 281.604,26.569 279.484,25.475L280.478,24.711C289.115,23.126 289.038,23.09 289.717,23.402Z" style="fill-opacity:0.37;"/>
                <path d="M340.66,35.677C340.418,39.638 341.5,39.424 341.464,43.46C340.94,43.125 340.415,42.79 339.891,42.455C339.261,38.289 336.749,36.95 340.66,35.677Z" style="fill-opacity:0.47;"/>
                <path d="M279.484,25.475C281.604,26.569 281.474,26.79 282.628,26.709C282.383,28.235 282.53,28.196 281.398,29.395C279.752,27.739 279.656,27.425 277.405,28.368C276.401,28.871 276.487,28.622 274.244,28.412C274.99,27.771 275.736,27.13 276.483,26.489L279.484,25.475Z" style="fill-opacity:0.54;"/>
                <path d="M291.584,125.165C294.559,127.753 294.587,127.852 298.563,127.507L298.515,128.88L297.179,129.182C294.32,131.132 294.276,129.699 291.589,127.428C291.587,126.674 291.586,125.92 291.584,125.165Z" style="fill-opacity:0.71;"/>
                <path d="M268.505,51.454L269.512,51.447C271.652,51.947 274.081,51.623 274.475,51.57C280.488,51.966 271.724,53.605 271.434,53.659C269.709,52.751 269.491,53.202 268.505,51.454Z" style="fill-opacity:0.49;"/>
                <path d="M302.656,32.784C300.924,33.327 299.192,33.871 297.461,34.415C295.649,35.117 295.686,34.711 293.826,35.371C293.737,34.792 293.648,34.213 293.56,33.634C294.192,33.483 301.468,31.74 301.468,31.74C301.995,31.727 302.129,32.796 302.656,32.784Z" style="fill-opacity:0.44;"/>
                <path d="M359.855,328.334C359.98,328.334 359.89,328.675 360.016,328.674C360.215,328.673 360.016,328.674 362.5,328.468C362.473,330.722 362.257,331.162 364.511,331.5C364.632,333.403 364.447,333.256 363.344,334.687C360.662,331.918 360.881,331.915 359.855,328.334Z" style="fill-opacity:0.85;"/>
                <path d="M301.512,79.895C301.759,79.913 316.28,82.998 303.532,82.249C303.24,82.232 300.54,82.073 299.997,81.304C299.088,80.016 300.147,80.42 301.512,79.895Z" style="fill-opacity:0.16;"/>
                <path d="M315.518,22.13C307.634,15.375 321.416,21.887 320.888,23.695C320.5,25.022 320.102,24.078 315.518,22.13Z" style="fill-opacity:0.41;"/>
                <path d="M281.726,40.435C278.758,42.904 277.235,41.504 277.86,37.811C279.01,31.004 281.141,39.513 281.726,40.435Z" style="fill-opacity:0.23;"/>
                <path d="M283.506,45.448C283.845,45.428 293.232,44.882 287.367,47.213C280.849,46.869 280.898,46.905 280.453,46.572C278.478,45.097 281.148,46.316 283.506,45.448Z" style="fill-opacity:0.34;"/>
                <path d="M272.688,48.624L273.317,48.472C274.424,49.904 274.36,49.804 274.475,51.57C274.081,51.623 271.652,51.947 269.512,51.447C268.187,48.771 269.557,48.663 272.688,48.624Z" style="fill-opacity:0.7;"/>
                <path d="M274.244,28.412C276.487,28.622 276.401,28.871 277.405,28.368C277.28,29.65 277.426,29.604 276.607,30.741L275.471,31.283C272.643,32.179 272.668,32.202 272.417,32.251C267.633,33.187 273.827,29.105 274.244,28.412Z" style="fill-opacity:0.65;"/>
                <path d="M307.673,126.863C310.927,126.82 311.091,126.357 311.174,126.625C312.245,130.083 310.907,130.163 307.198,130.229C307.198,130.005 307.261,130.057 307.506,127.439L307.673,126.863Z" style="fill-opacity:0.76;"/>
                <path d="M283.757,35.004C292.052,35.083 291.8,36.309 292.501,36.451C290.168,36.55 287.834,36.649 285.5,36.748C285.059,37.061 284.617,37.375 284.175,37.689C283.205,36.512 283.739,36.431 283.757,35.004Z" style="fill-opacity:0.89;"/>
                <path d="M290.464,38.42L293.173,38.031C293.278,38.86 293.383,39.688 293.488,40.517C290.305,41.37 290.539,41.382 287.594,42.477L286.451,40.612C288.741,39.976 288.69,40.093 290.464,38.42Z" style="fill-opacity:0.89;"/>
                <path d="M327.479,9.48C326.914,9.43 324.273,9.197 320.767,7.222C320.561,7.106 323.553,2.02 327.479,9.48Z" style="fill-opacity:0.1;"/>
                <path d="M273.474,98.473C276.34,97.816 276.935,97.448 277.756,100.212C276.253,101.208 276.283,101.018 275.138,102.517C273.865,100.504 273.462,100.796 273.474,98.473Z" style="fill-opacity:0.86;"/>
                <path d="M339.891,42.455C340.415,42.79 340.94,43.125 341.464,43.46C341.182,44.146 339.779,43.814 339.498,44.5C338.993,45.729 339.47,47.157 339.401,48.484C339.281,50.796 333.646,46.604 339.891,42.455Z" style="fill-opacity:0.59;"/>
                <path d="M334.473,44.186L335.811,44.546C335.033,47.824 334.769,47.586 333.25,50.495L332.09,47.725C332.723,45.578 334.205,44.398 334.473,44.186Z" style="fill-opacity:0.78;"/>
                <path d="M354.245,48.564C351.782,51.643 352.039,52.316 348.163,52.432C352.246,48.63 353.261,44.77 354.245,48.564Z" style="fill-opacity:0.55;"/>
                <path d="M331.494,34.929C332.483,35.464 333.471,35.999 334.46,36.533C341.099,44.667 330.845,36.589 330.602,36.398C329.864,35.101 330.192,34.618 331.494,34.929Z" style="fill-opacity:0.49;"/>
                <path d="M327.701,15.685C328.028,15.982 330.648,18.362 331.883,19.298C332.722,20.316 332.547,20.167 333.083,21.272L332.128,22.079C330.907,21.093 328.887,19.374 328.607,19.137C328.092,18.162 327.578,17.188 327.063,16.214L327.701,15.685Z" style="fill-opacity:0.38;"/>
                <path d="M295.542,16.308C298.31,14.928 298.342,15.903 304.506,17.499C299.924,17.489 300.02,17.501 295.542,16.308Z" style="fill-opacity:0.47;"/>
                <path d="M348.698,54.58L349.519,54.551C349.683,54.899 350.754,57.171 353.292,57.53C353.199,57.792 352.556,59.598 351.453,60.48C351.16,58.751 351.143,58.579 349.37,58.483C349.146,57.182 348.922,55.881 348.698,54.58Z" style="fill-opacity:0.55;"/>
                <path d="M280.478,24.711L279.484,25.475L276.483,26.489C275.636,22.414 278.71,20.8 280.478,24.711Z" style="fill-opacity:0.63;"/>
                <path d="M284.526,51.405C287.955,51.05 288.65,50.204 290.492,53.522C286.835,53.456 285.953,54.764 284.526,51.405Z" style="fill-opacity:0.62;"/>
                <path d="M348.608,33.533C349.771,35.641 349.477,35.59 349.323,38.148C349,38.59 348.677,39.033 348.353,39.476C345.068,36.814 347.063,36.224 348.608,33.533Z" style="fill-opacity:0.73;"/>
                <path d="M290.651,31.638L289.353,32.078L288.492,32.108C288.181,32.03 284.807,31.184 284.814,30.518C284.819,30.043 285.21,27.618 290.651,31.638Z" style="fill-opacity:0.12;"/>
                <path d="M292.523,12.556L294.513,12.045C294.116,12.578 296.077,13.126 295.681,13.659C295.681,13.659 291.834,15.143 291.5,15.272C288.732,14.8 288.823,14.945 288.593,14.9C290.328,13.231 290.277,13.413 292.523,12.556Z" style="fill-opacity:0.62;"/>
                <path d="M297.56,48.659C300.533,47.879 300.478,47.631 303.44,48.693C300.683,49.419 300.825,49.66 300.584,49.661L299.411,50.243C298.45,50.004 297.489,49.765 296.529,49.527C296.873,49.237 297.216,48.948 297.56,48.659Z" style="fill-opacity:0.51;"/>
                <path d="M285.5,36.748C287.647,38.483 287.592,38.357 290.464,38.42C288.69,40.093 288.741,39.976 286.451,40.612C285.505,38.896 285.171,39.33 284.175,37.689C284.617,37.375 285.059,37.061 285.5,36.748Z" style="fill-opacity:0.52;"/>
                <path d="M306.246,52.051C306.458,52.615 308.704,56.059 302.53,57.485C302.955,56.579 303.381,55.672 303.806,54.765C304.619,53.86 305.433,52.956 306.246,52.051Z" style="fill-opacity:0.16;"/>
                <path d="M308.552,104.491C306.333,100.376 312.347,104.176 312.623,104.35C312.255,104.547 312.523,106.186 308.552,104.491Z" style="fill-opacity:0.9;"/>
                <path d="M308.552,104.491C312.523,106.186 312.255,104.547 312.623,104.35L313.634,105.326C312.346,107.154 312.097,108.437 308.574,105.996L308.552,104.491Z" style="fill-opacity:0.58;"/>
                <path d="M307.267,111.347C307.678,111.163 310.965,109.689 312.887,111.121C313.248,111.39 313.15,114.569 307.267,111.347Z" style="fill-opacity:0.32;"/>
                <path d="M315.313,14.29C317.925,16.493 317.925,16.461 318.134,16.669C319.115,17.642 318.755,17.788 319.794,18.818C317.723,19.284 313.368,17.303 315.313,14.29Z" style="fill-opacity:0.47;"/>
                <path d="M164.491,264.503C165.302,264.583 166.112,264.662 166.922,264.742L165.917,268.338C164.796,268.037 163.675,267.735 162.554,267.434C164.551,267.013 163.942,266.456 164.491,264.503Z" style="fill-opacity:0.75;"/>
                <path d="M302.666,123.689C302.736,124.359 305.903,126.656 301.618,129.007C301.249,128.52 300.88,128.033 300.511,127.547C301.311,126.15 300.924,126.107 301.792,124.697L302.666,123.689Z" style="fill-opacity:0.66;"/>
                <path d="M328.866,15.162C321.136,6.314 331.513,15.229 331.672,15.389C330.737,15.313 329.801,15.237 328.866,15.162Z" style="fill-opacity:0.23;"/>
                <path d="M306.13,122.896C308.795,123.574 308.045,124.277 307.673,126.863L307.506,127.439C307.001,127.554 306.496,127.668 305.991,127.782C305.918,127.398 305.561,125.521 306.13,122.896Z" style="fill-opacity:0.96;"/>
                <path d="M320.873,10.732C322.643,9.248 322.834,9.925 324.249,11.748C334.193,24.563 321.061,10.943 320.873,10.732Z" style="fill-opacity:0.28;"/>
                <path d="M309.555,47.598C304.206,49.837 308.938,44.181 311.371,44.978C313.658,45.727 311.338,46.081 309.555,47.598Z" style="fill-opacity:0.4;"/>
                <path d="M327.701,15.685L328.866,15.162C329.801,15.237 330.737,15.313 331.672,15.389C332.552,17.322 332.744,17.266 331.883,19.298C330.648,18.362 328.028,15.982 327.701,15.685Z" style="fill-opacity:0.69;"/>
                <path d="M261.507,108.479C259.603,101.439 263.847,103.294 263.848,103.343C263.868,104.401 263.66,104.316 261.507,108.479Z" style="fill-opacity:0.1;"/>
                <path d="M300.511,127.547C300.88,128.033 301.249,128.52 301.618,129.007C300.026,131.779 298.998,131.849 297.179,129.182L298.515,128.88L300.511,127.547Z" style="fill-opacity:0.88;"/>
                <path d="M305.991,127.782C306.496,127.668 307.001,127.554 307.506,127.439C307.261,130.057 307.198,130.005 307.198,130.229C306.519,132.493 306.665,132.372 306.519,132.493C303.756,134.797 305.875,128.143 305.991,127.782Z" style="fill-opacity:0.53;"/>
                <path d="M322.665,21.551C325.292,21.947 325.092,22.193 327.566,22.581C327.618,23.097 327.669,23.613 327.72,24.129C326.327,23.897 324.934,23.665 323.541,23.433C323.249,22.806 322.957,22.178 322.665,21.551Z" style="fill-opacity:0.78;"/>
                <path d="M293.488,40.517L293.933,41.359C293.665,41.52 291.488,42.835 290.482,43.187C289.52,42.951 288.557,42.714 287.594,42.477C290.539,41.382 290.305,41.37 293.488,40.517Z" style="fill-opacity:0.51;"/>
                <path d="M327.063,16.214C327.578,17.188 328.092,18.162 328.607,19.137C327.119,19.493 327.311,19.654 325.656,19.103L324.728,18.07C325.006,16.343 325.474,16.861 327.063,16.214Z" style="fill-opacity:0.55;"/>
                <path d="M306.552,34.59C308.098,35.05 308.092,34.875 308.603,35.438C308.355,35.604 305.505,37.513 305.505,37.513C305.505,37.513 303.625,36.535 303.462,36.45L306.552,34.59Z" style="fill-opacity:0.52;"/>
                <path d="M266.47,37.489C266.019,34.509 265.202,34.335 266.762,32.868C270.38,29.465 266.632,37.156 266.47,37.489Z" style="fill-opacity:0.42;"/>
                <path d="M291.584,125.165C291.586,125.92 291.587,126.674 291.589,127.428C291.269,127.178 270.851,108.751 289.283,122.905C289.488,123.062 289.454,123.072 291.584,125.165Z" style="fill-opacity:0.81;"/>
                <path d="M334.552,85.414C334.139,86.094 334.531,87.806 330.733,87.164C312.095,84.017 334.217,85.386 334.552,85.414Z" style="fill-opacity:0.22;"/>
                <path d="M303.44,48.693C306.729,49.909 304.018,50.85 303.417,51.389C301.724,52.904 301.774,51.593 300.584,49.661C300.825,49.66 300.683,49.419 303.44,48.693Z" style="fill-opacity:0.67;"/>
                <path d="M308.46,6.689C311.149,5.783 311.035,6.071 313.807,7.174C312.132,8.054 312.313,8.206 310.497,8.13C309.332,7.445 309.633,7.372 308.46,6.689Z" style="fill-opacity:0.66;"/>
                <path d="M312.693,43.225C313.958,41.15 314.078,40.936 316.6,41.354C316.942,41.411 318.133,44.052 312.693,43.225Z" style="fill-opacity:0.34;"/>
                <path d="M274.836,64.526C280.05,61.899 277.257,68.824 276.452,68.148C276.209,67.944 276.332,67.88 274.836,64.526Z" style="fill-opacity:0.71;"/>
                <path d="M349.519,54.551C349.658,54.546 351.516,51.86 353.177,56.555L353.292,57.53C350.754,57.171 349.683,54.899 349.519,54.551Z" style="fill-opacity:0.75;"/>
                <path d="M356.99,48.098C356.881,47.755 356.141,45.445 356.728,43.604C356.97,42.845 360.374,43.48 356.99,48.098Z" style="fill-opacity:0.26;"/>
                <path d="M315.657,13.521C319.26,15.926 320.294,17.614 320.574,18.071L319.794,18.818C318.755,17.788 319.115,17.642 318.134,16.669C317.925,16.461 317.925,16.493 315.313,14.29L315.657,13.521Z" style="fill-opacity:0.82;"/>
                <path d="M293.933,41.359C294.154,42.107 294.375,42.854 294.597,43.602C292.47,44.512 292.453,44.468 290.482,43.187C291.488,42.835 293.665,41.52 293.933,41.359Z" style="fill-opacity:0.74;"/>
                <path d="M319.266,43.381C322.081,41.755 323.566,41.868 323.291,45.191L322.507,45.507C321.861,45.105 321.214,44.702 320.568,44.3L319.266,43.381Z" style="fill-opacity:0.48;"/>
                <path d="M323.418,27.776C324.363,27.952 325.307,28.128 326.251,28.305L325.514,29.508C324.069,29.735 322.625,29.962 321.181,30.189C321.254,29.736 321.327,29.283 321.4,28.831C322.073,28.479 322.745,28.127 323.418,27.776Z" style="fill-opacity:0.73;"/>
                <path d="M284.809,116.52C285.041,116.681 287.433,118.334 286.608,119.556C285.287,121.514 285.162,119.787 283.482,117.932C283.924,117.461 284.367,116.991 284.809,116.52Z" style="fill-opacity:0.95;"/>
                <path d="M325.562,47.185C325.832,47.443 328.269,49.772 327.412,51.481C327.301,51.702 323.316,50.156 325.562,47.185Z" style="fill-opacity:0.46;"/>
                <path d="M305.435,6.244L308.46,6.689C309.633,7.372 309.332,7.445 310.497,8.13C308.951,8.201 307.836,10.731 305.435,6.244Z" style="fill-opacity:0.47;"/>
                <path d="M341.327,17.284C344.362,15.954 343.878,17.669 344.993,19.232C343.388,20.099 343.522,20.041 343.388,20.099C342.896,20.314 343.034,19.98 342.411,20.252C342.308,18.622 342.227,18.802 341.327,17.284Z" style="fill-opacity:0.84;"/>
                <path d="M296.586,39.558C296.715,39.467 302.358,35.515 298.372,40.399C297.278,41.74 296.63,41.199 296.586,39.558Z" style="fill-opacity:0.42;"/>
                <path d="M343.052,49.36C341.72,50.341 341.132,51.652 340.982,50.006C340.958,49.742 341.67,47.242 341.919,46.827C342.034,46.637 344.321,45.546 343.052,49.36Z" style="fill-opacity:0.4;"/>
                <path d="M301.792,124.697C300.924,126.107 301.311,126.15 300.511,127.547L298.515,128.88L298.563,127.507C299.407,125.362 299.863,125.852 301.792,124.697Z" style="fill-opacity:0.73;"/>
                <path d="M354.584,39.222C357.419,43.879 353.633,44.497 353.615,43.429C353.567,40.435 354.464,39.743 354.584,39.222Z" style="fill-opacity:0.44;"/>
                <path d="M343.685,33.359L344.538,33.791C344.535,33.909 344.32,33.947 344.317,34.065C344.312,34.258 344.317,34.065 344.41,36.484C344.104,36.839 343.797,37.194 343.491,37.549C342.247,35.526 342.34,35.34 343.685,33.359Z" style="fill-opacity:0.87;"/>
                <path d="M293.427,49.154C291.165,48.471 291.151,48.659 291.165,48.471C291.206,47.899 297.217,43.507 293.427,49.154Z" style="fill-opacity:0.14;"/>
                <path d="M350.018,45.741C349.485,47.339 349.917,47.565 348.488,48.473C346.632,49.653 345.98,45.36 350.018,45.741Z" style="fill-opacity:0.32;"/>
                <path d="M333.534,33.273C334.78,34.586 334.348,34.606 334.46,36.533C333.471,35.999 332.483,35.464 331.494,34.929C331.599,34.767 331.495,34.882 333.534,33.273Z" style="fill-opacity:0.63;"/>
                <path d="M288.689,18.702C288.992,19.54 288.839,19.436 289.526,20.192C288.825,20.622 288.124,21.051 287.424,21.48C284.814,20.871 285.039,20.861 284.825,20.871C286.354,19.098 286.29,19.155 288.689,18.702Z" style="fill-opacity:0.64;"/>
                <path d="M307.509,9.728C307.842,9.856 311.673,11.329 311.673,11.329C312.046,11.676 311.296,12.509 311.668,12.857C309.126,11.425 308.881,11.902 307.509,9.728Z" style="fill-opacity:0.44;"/>
                <path d="M165.686,279.484C167.996,280.311 167.82,280.223 167.996,280.311C168.785,280.707 167.748,281.259 168.631,281.702C167.928,281.995 167.225,282.288 166.521,282.582C164.693,280.443 165.591,280.357 165.686,279.484Z" style="fill-opacity:0.73;"/>
                <path d="M284.825,20.871C285.039,20.861 284.814,20.871 287.424,21.48C287.226,21.56 280.628,24.234 284.825,20.871Z" style="fill-opacity:0.53;"/>
                <path d="M319.581,33.807C321.399,33.89 322.077,33.345 322.074,35.202C320.432,35.498 320.607,35.497 319.023,35.373C319.209,34.851 319.395,34.329 319.581,33.807Z" style="fill-opacity:0.51;"/>
                <path d="M264.218,64.573C264.47,67.32 264.457,67.171 265.202,69.789L263.591,69.5C263.8,67.857 264.009,66.215 264.218,64.573Z" style="fill-opacity:0.44;"/>
                <path d="M277.756,100.212C277.338,101.318 276.92,102.424 276.502,103.531L275.862,104.224C275.62,103.655 275.379,103.086 275.138,102.517C276.283,101.018 276.253,101.208 277.756,100.212Z" style="fill-opacity:0.67;"/>
                <path d="M349.37,58.483C351.143,58.579 351.16,58.751 351.453,60.48C351.182,60.936 350.912,61.392 350.642,61.848C350.218,60.726 349.794,59.605 349.37,58.483Z" style="fill-opacity:0.33;"/>
                <path d="M323.418,27.776C322.745,28.127 322.073,28.479 321.4,28.831L318.501,28.652C320.14,28.36 321.779,28.068 323.418,27.776Z" style="fill-opacity:0.91;"/>
                <path d="M279.501,111.5C279.688,111.339 282.483,108.937 282.432,110.543C282.35,113.123 281.137,113.549 279.501,111.5Z" style="fill-opacity:0.52;"/>
                <path d="M324.541,34.339C325.594,34.418 326.648,34.497 327.702,34.576C327.53,35.304 327.359,36.032 327.187,36.761C325.426,36.034 325.439,36.096 324.541,34.339Z" style="fill-opacity:0.75;"/>
                <path d="M301.56,7.823L303.587,8.636L302.682,10.719L301.949,10.858C301.6,10.143 299.822,9.538 301.56,7.823Z" style="fill-opacity:0.73;"/>
                <path d="M342.385,26.286C343.153,29.098 343.329,29.099 343.214,29.323C342.937,29.862 339.467,30.229 342.385,26.286Z" style="fill-opacity:0.65;"/>
                <path d="M400.799,300.627C401.824,303.228 401.731,303.359 401.59,303.557C401.59,303.557 398.817,302.744 398.576,302.674L400.799,300.627Z" style="fill-opacity:0.71;"/>
                <path d="M262.729,53.699C262.872,53.684 269.494,53.43 263.514,55.312C263.253,54.774 262.991,54.237 262.729,53.699Z" style="fill-opacity:0.42;"/>
                <path d="M362.5,328.468C364.092,329.502 363.845,329.593 364.511,331.5C362.257,331.162 362.473,330.722 362.5,328.468Z" style="fill-opacity:0.31;"/>
                <path d="M269.561,57.426L271.714,59.316C270.48,59.413 270.541,60.296 269.503,59.49C268.94,59.052 269.093,59.147 268.591,58.726L269.561,57.426Z" style="fill-opacity:0.37;"/>
                <path d="M354.47,51.511C354.586,52.604 354.703,53.697 354.82,54.79C353.292,53.036 352.549,52.588 354.47,51.511Z" style="fill-opacity:0.53;"/>
                <path d="M281.819,30.53C280.116,32.174 280.281,32.236 277.842,32.543C278.032,32.337 277.773,30.77 281.819,30.53Z" style="fill-opacity:0.58;"/>
                <path d="M262.729,53.699C262.991,54.237 263.253,54.774 263.514,55.312C262.673,55.737 261.831,56.162 260.99,56.587L260.511,55.485C261.25,54.89 261.99,54.295 262.729,53.699Z" style="fill-opacity:0.75;"/>
                <path d="M337.277,19.767C337.117,19.572 332.536,13.987 336.5,16.711C339.039,18.456 337.076,18.976 337.277,19.767Z" style="fill-opacity:0.52;"/>
                <path d="M165.686,279.484C167.902,279.389 167.921,279.107 169.696,280.709L168.631,281.702C167.748,281.259 168.785,280.707 167.996,280.311C167.82,280.223 167.996,280.311 165.686,279.484Z" style="fill-opacity:0.64;"/>
                <path d="M343.614,25.487C344.437,17.721 345.361,26.316 345.37,26.478C344.785,26.147 344.2,25.817 343.614,25.487Z" style="fill-opacity:0.34;"/>
                <path d="M328.568,29.86C330.237,29.846 330.397,29.747 331.039,31.441C330.164,31.492 330.251,32.035 329.499,31.531C328.576,30.913 328.817,30.847 328.568,29.86Z" style="fill-opacity:0.53;"/>
                <path d="M292.549,28.616C296.543,27.536 296.021,29.138 296.457,29.393C295.154,29.134 293.851,28.875 292.549,28.616Z" style="fill-opacity:0.93;"/>
                <path d="M318.453,45.209C319.508,45.604 320.563,46 321.618,46.395C320.46,46.478 319.303,46.561 318.146,46.644L318.453,45.209Z" style="fill-opacity:0.29;"/>
                <path d="M273.618,23.434C272.402,27.961 270.854,25.776 270.855,25.5C270.856,24.211 271.332,24.578 273.618,23.434Z" style="fill-opacity:0.71;"/>
                <path d="M276.502,103.531C277.268,103.895 278.034,104.258 278.8,104.622L277.431,106.467C276.908,105.72 276.385,104.972 275.862,104.224L276.502,103.531Z" style="fill-opacity:0.93;"/>
                <path d="M345.37,26.478C349.038,28.948 345.823,29.312 345.622,29.22C345.422,29.128 344.809,28.846 345.37,26.478Z" style="fill-opacity:0.73;"/>
                <path d="M268.475,28.44C272.734,28.539 267.685,30.359 267.519,30.419C267.867,29.838 267.346,29.932 267.568,29.56C267.627,29.461 267.568,29.56 268.475,28.44Z" style="fill-opacity:0.61;"/>
                <path d="M343.685,33.359C343.786,32.123 343.243,31.687 344.48,31.443C344.664,31.406 347.088,31.302 344.538,33.791L343.685,33.359Z" style="fill-opacity:0.36;"/>
                <path d="M351.565,40.116C352.392,41.66 352.179,41.638 351.391,43.243C350.549,41.702 350.788,41.702 351.565,40.116Z" style="fill-opacity:0.28;"/>
                <path d="M284.809,116.52C284.367,116.991 283.924,117.461 283.482,117.932C282.288,115.982 284.668,114.392 284.809,116.52Z" style="fill-opacity:0.75;"/>
                <path d="M341.327,17.284C342.227,18.802 342.308,18.622 342.411,20.252C341.188,19.551 341.257,19.814 340.387,18.643L341.327,17.284Z" style="fill-opacity:0.29;"/>
                <path d="M273.599,89.632C275.089,90.369 274.705,90.745 273.425,91.816C272.686,90.688 273.085,90.779 273.599,89.632Z" style="fill-opacity:0.55;"/>
                <path d="M293.488,40.517C294.273,40.574 295.058,40.63 295.843,40.687C295.407,42.39 295.536,42.242 294.597,43.602C294.375,42.854 294.154,42.107 293.933,41.359L293.488,40.517Z" style="fill-opacity:0.89;"/>
                <path d="M246.49,112.209C245.685,110.718 245.113,110.539 246.478,109.459C248.383,107.95 247.25,110.06 246.49,112.209Z" style="fill-opacity:0.48;"/>
                <path d="M342.585,83.674C344.06,84.631 344.672,84.416 344.224,85.406C342.162,89.958 342.572,83.864 342.585,83.674Z" style="fill-opacity:0.21;"/>
                <path d="M188.666,284.394C188.635,284.55 188.003,287.724 186.97,285.426C186.295,283.922 187.109,283.603 188.666,284.394Z" style="fill-opacity:0.1;"/>
                <path d="M334.513,22.102C335.498,20.418 336.368,20.665 336.744,22.548C336.951,23.583 336.247,23.335 334.513,22.102Z" style="fill-opacity:0.81;"/>
                <path d="M261.721,59.324C260.551,62.981 259.685,61.833 259.531,61.63C258.445,60.191 259.729,60.509 261.721,59.324Z" style="fill-opacity:0.44;"/>
                <path d="M318.695,655.581C318.57,655.692 315.238,658.651 316.609,655.634C317.158,654.425 317.341,654.421 317.46,654.418C318.494,654.392 317.674,655.607 318.695,655.581Z" style="fill-opacity:0.37;"/>
                <path d="M320.48,110.492C319.522,112.125 319.192,112.974 318.268,111.452C318.167,111.287 317.677,110.48 320.48,110.492Z" style="fill-opacity:0.75;"/>
                <path d="M288.49,26.546C289.469,26.808 290.448,27.069 291.428,27.331L290.573,27.601C289.879,27.249 289.184,26.898 288.49,26.546Z" style="fill-opacity:0.9;"/>
                <path d="M268.475,28.44C267.568,29.56 267.627,29.461 267.568,29.56C267.346,29.932 267.867,29.838 267.519,30.419L266.301,29.608C266.381,29.539 265.567,28.478 268.475,28.44Z" style="fill-opacity:0.93;"/>
                <path d="M318.453,45.209L318.146,46.644C312.952,46.148 318.337,45.226 318.453,45.209Z" style="fill-opacity:0.55;"/>
                <path d="M281.788,56.595C281.61,56.657 279.57,57.364 279.57,57.364C277.595,55.924 281.602,56.566 281.788,56.595Z" style="fill-opacity:0.72;"/>
                <path d="M302.412,108.709C304.114,108.558 305.727,108.228 304.279,109.22C303.379,109.837 303.457,109.283 302.412,108.709Z" style="fill-opacity:0.86;"/>
                <path d="M277.547,54.704C276.396,56.052 276.491,55.922 275.722,57.457L275.67,56.481C276.296,55.888 276.921,55.296 277.547,54.704Z" style="fill-opacity:0.74;"/>
                <path d="M279.229,107.381C278.379,109.831 278.587,109.831 278.379,109.831C277.304,109.827 278.631,108.381 277.57,108.378L279.229,107.381Z" style="fill-opacity:0.85;"/>
                <path d="M196.721,299.704L196.454,300.54C195.564,299.346 194.958,300.751 194.13,299.639C192.879,297.96 194.731,299.654 196.721,299.704Z" style="fill-opacity:0.65;"/>
                <path d="M295.461,123.514C296.051,124.826 297.834,125.115 296.274,125.324C296.274,125.324 295.526,123.659 295.461,123.514Z" style="fill-opacity:0.76;"/>
                <path d="M344.41,36.484C344.045,37.31 344.366,37.511 343.491,37.549C343.797,37.194 344.104,36.839 344.41,36.484Z" style="fill-opacity:0.94;"/>
                <path d="M467.782,444.592L468.494,445.51C467.661,445.55 467.563,445.534 467.782,444.592Z" style="fill-opacity:0.57;"/>
                <path d="M348.526,64.512C347.588,65.129 348.372,65.633 347.5,66.207C346.013,67.185 347.651,65.957 348.526,64.512Z" style="fill-opacity:0.83;"/>
                <path d="M319.266,43.381L320.568,44.3C319.646,43.962 319.534,44.25 319.266,43.381Z" style="fill-opacity:0.69;"/>
                <path d="M278.592,43.822L279.758,43.868L280.634,44.156C279.954,44.045 279.273,43.933 278.592,43.822Z" style="fill-opacity:0.57;"/>
            </g>
        </g>
    </g>
</svg>
